<?xml version="1.0" encoding="utf-8"?>
<!-- Generator: Adobe Illustrator 16.0.4, SVG Export Plug-In . SVG Version: 6.00 Build 0)  -->
<!DOCTYPE svg PUBLIC "-//W3C//DTD SVG 1.1//EN" "http://www.w3.org/Graphics/SVG/1.1/DTD/svg11.dtd">
<svg version="1.1" id="Layer_1" xmlns="http://www.w3.org/2000/svg" xmlns:xlink="http://www.w3.org/1999/xlink" x="0px" y="0px"
	 width="24px" height="5.269px" viewBox="0 9.366 24 5.269" enable-background="new 0 9.366 24 5.269" xml:space="preserve">
<g id="g10" transform="matrix(1.25,0,0,-1.25,0,144.1625)">
	<g id="g12" transform="scale(0.1,0.1)">
		<path id="path14" fill="#54F7F5" d="M11.07,1078.206c-2.75,0-5.262-1.004-7.199-2.664l4.406-4.41
			c0.793,0.559,1.754,0.887,2.793,0.887h16.289v-17.016c0-0.852-0.219-1.648-0.602-2.344l4.453-4.453
			c1.465,1.875,2.336,4.234,2.336,6.797v23.203H11.07"/>
		<path id="path16" fill="#54F7F5" d="M22.477,1050.113H6.187v17.02c0,0.852,0.219,1.652,0.602,2.344l-4.453,4.457
			c-1.465-1.875-2.336-4.238-2.336-6.801v-23.207h22.477c2.75,0,5.262,1.008,7.199,2.672l-4.406,4.406
			C24.477,1050.441,23.512,1050.113,22.477,1050.113"/>
		<path id="path18" fill="#ffffff" d="M50.293,1054.788h4.926c4.312,0,4.77,2.898,4.77,6.715c0,3.82-0.457,6.645-4.77,6.645h-3.777
			c-0.727,0-1.148-0.344-1.148-0.996V1054.788z M56.324,1071.581c6.492,0,8.285-3.969,8.285-10.078
			c0-6.105-1.793-10.156-8.285-10.156h-6.031v-6.484h-4.465v23.285c0,2.289,1.145,3.434,3.438,3.434H56.324"/>
		<path id="path20" fill="#ffffff" d="M69.113,1051.347h4.465v26.723h-4.465V1051.347z"/>
		<path id="path22" fill="#ffffff" d="M84.84,1060.511c-1.527,0-2.137-0.953-2.137-2.863c0-1.906,0.609-2.859,2.137-2.859h6.301
			c0.762,0,1.145,0.379,1.145,1.145v4.578H84.84z M91.062,1071.581c3.816,0,5.688-2.52,5.688-5.953v-10.84
			c0-2.293-1.145-3.441-3.434-3.441H83.121c-3.434,0-5.035,2.102-5.035,6.301c0,3.816,1.602,6.301,5.035,6.301h9.164v1.297
			c0,1.906-0.918,2.902-2.824,2.902h-9.887v3.434H91.062"/>
		<path id="path24" fill="#ffffff" d="M110.344,1051.347c-4.586,0-7.445,1.641-7.445,6.609v10.191h-2.789v3.434h2.789v6.488h4.461
			v-6.488h5.766v-3.434h-5.766v-9.277c0-3.055,1.609-4.082,4.656-4.082h1.109v-3.441H110.344"/>
		<path id="path26" fill="#ffffff" d="M119.078,1051.347v16.801h-2.82v3.434h2.82c0,5.344,3.898,6.793,8.859,6.793
			c0.383,0,0.766-0.035,1.141-0.035v-3.285c-0.266,0.039-0.492,0.039-0.758,0.039c-2.445,0-4.773-0.191-4.773-3.512h5.531v-3.434
			h-5.531v-16.801H119.078"/>
		<path id="path28" fill="#ffffff" d="M141.07,1054.558c4.578,0,6.148,1.984,6.148,6.945c0,4.965-1.57,6.871-6.148,6.871
			c-4.586,0-6.148-1.906-6.148-6.871C134.922,1056.542,136.484,1054.558,141.07,1054.558z M151.828,1061.503
			c0-8.09-3.508-10.383-10.758-10.383c-7.258,0-10.766,2.293-10.766,10.383c0,8.016,3.508,10.309,10.766,10.309
			C148.32,1071.812,151.828,1069.519,151.828,1061.503"/>
		<path id="path30" fill="#ffffff" d="M154.812,1063.948c0,5.418,2.75,7.633,8.172,7.633H166v-3.434h-1.875
			c-3.586,0-4.844-1.797-4.844-5.383v-11.418h-4.469V1063.948"/>
		<path id="path32" fill="#ffffff" d="M174.734,1060.511c-1.523,0-2.133-0.953-2.133-2.863c0-1.906,0.609-2.859,2.133-2.859h6.297
			c0.766,0,1.148,0.379,1.148,1.145v4.578H174.734z M180.961,1071.581c3.82,0,5.688-2.52,5.688-5.953v-10.84
			c0-2.293-1.148-3.441-3.438-3.441h-10.195c-3.43,0-5.031,2.102-5.031,6.301c0,3.816,1.602,6.301,5.031,6.301h9.164v1.297
			c0,1.906-0.914,2.902-2.82,2.902h-9.891v3.434H180.961"/>
		<path id="path34" fill="#ffffff" d="M190.406,1070.624c-0.094,0.055-0.25,0.082-0.461,0.082h-0.32v-0.781h0.344
			c0.156,0,0.281,0.016,0.359,0.047c0.148,0.059,0.219,0.172,0.219,0.336C190.547,1070.464,190.5,1070.57,190.406,1070.624z
			 M190,1070.964c0.266,0,0.453-0.023,0.578-0.078c0.227-0.094,0.344-0.273,0.344-0.547c0-0.191-0.078-0.332-0.219-0.426
			c-0.07-0.047-0.172-0.082-0.312-0.105c0.172-0.023,0.297-0.094,0.375-0.211c0.078-0.113,0.117-0.223,0.117-0.332v-0.16
			c0-0.047,0.008-0.102,0.008-0.16c0-0.055,0.008-0.094,0.016-0.109l0.016-0.027h-0.359c0,0.008,0,0.012,0,0.02
			s-0.008,0.016-0.008,0.023l-0.008,0.07v0.172c0,0.25-0.07,0.414-0.203,0.492c-0.078,0.047-0.219,0.07-0.422,0.07h-0.297v-0.848
			h-0.391v2.156H190z M188.844,1071.073c-0.336-0.328-0.5-0.727-0.5-1.195c0-0.473,0.164-0.875,0.492-1.203
			c0.328-0.332,0.727-0.5,1.195-0.5s0.875,0.168,1.203,0.5c0.328,0.328,0.484,0.73,0.484,1.203c0,0.469-0.156,0.867-0.484,1.195
			c-0.336,0.332-0.734,0.5-1.203,0.5S189.172,1071.406,188.844,1071.073z M191.422,1068.488c-0.383-0.387-0.844-0.578-1.391-0.578
			s-1.008,0.191-1.391,0.578c-0.375,0.383-0.562,0.848-0.562,1.395c0,0.539,0.188,1,0.57,1.387c0.383,0.379,0.844,0.57,1.383,0.57
			c0.547,0,1.008-0.191,1.391-0.57c0.391-0.383,0.578-0.848,0.578-1.387C192,1069.335,191.812,1068.87,191.422,1068.488"/>
		<path id="path36" fill="#ffffff" d="M77.828,1040.784l-3.172,4.398c-0.105,0.172,0,0.383,0.211,0.383h0.617
			c0.094,0,0.172-0.062,0.211-0.125l2.66-3.664l2.656,3.664c0.039,0.062,0.117,0.125,0.211,0.125h0.617
			c0.211,0,0.316-0.211,0.211-0.383l-3.211-4.383v-4.195c0-0.133-0.117-0.25-0.25-0.25h-0.512c-0.145,0-0.25,0.117-0.25,0.25
			V1040.784"/>
		<path id="path38" fill="#ffffff" d="M83.996,1037.081c0.961,0,1.707,0.852,1.707,1.922c0,1.031-0.746,1.875-1.707,1.875
			s-1.711-0.844-1.711-1.875C82.285,1037.933,83.035,1037.081,83.996,1037.081z M83.996,1041.753c1.457,0,2.617-1.266,2.617-2.75
			c0-1.516-1.16-2.781-2.617-2.781c-1.461,0-2.621,1.266-2.621,2.781C81.375,1040.488,82.535,1041.753,83.996,1041.753"/>
		<path id="path40" fill="#ffffff" d="M87.84,1041.363c0,0.141,0.117,0.25,0.25,0.25h0.422c0.129,0,0.25-0.109,0.25-0.25v-2.773
			c0-0.992,0.445-1.484,1.184-1.484c1,0,1.566,0.75,1.566,0.75c0,0.289,0,0.594,0,3.508c0,0.141,0.117,0.25,0.25,0.25h0.406
			c0.133,0,0.25-0.109,0.25-0.25v-4.758c0-0.133-0.117-0.25-0.25-0.25h-0.25c-0.145,0-0.195,0.094-0.238,0.227l-0.09,0.344
			c0,0-0.617-0.703-1.711-0.703c-1.527,0-2.039,0.984-2.039,2.383V1041.363"/>
		<path id="path42" fill="#ffffff" d="M96.762,1037.097c0.051,0.078,0.145,0.258,0.184,0.328c0.066,0.102,0.211,0.125,0.355,0.031
			c0,0,0.566-0.453,1.238-0.453c0.539,0,0.852,0.273,0.852,0.625c0,0.469-0.395,0.672-1.156,1.055c-0.699,0.344-1.5,0.805-1.5,1.695
			c0,0.555,0.449,1.375,1.672,1.375c0.684,0,1.211-0.242,1.461-0.414c0.117-0.078,0.156-0.258,0.078-0.406l-0.105-0.211
			c-0.078-0.141-0.262-0.188-0.383-0.117c0,0-0.566,0.32-1.051,0.32c-0.594,0-0.75-0.312-0.75-0.531
			c0-0.438,0.434-0.633,0.973-0.891c0.91-0.438,1.723-0.844,1.723-1.797c0-0.758-0.734-1.484-1.812-1.484
			c-0.883,0-1.422,0.375-1.711,0.594C96.762,1036.863,96.723,1037.003,96.762,1037.097"/>
		<path id="path44" fill="#ffffff" d="M101.547,1045.316c0,0.125,0.125,0.25,0.25,0.25h0.406c0.141,0,0.25-0.125,0.25-0.25v-4.266
			c0,0,0.703,0.703,1.766,0.703c1.305,0,2.039-0.828,2.039-2.375v-2.773c0-0.133-0.117-0.25-0.25-0.25h-0.422
			c-0.133,0-0.25,0.117-0.25,0.25v2.773c0,1-0.445,1.484-1.18,1.484c-1,0-1.703-0.734-1.703-0.734v-3.523
			c0-0.133-0.109-0.25-0.25-0.25h-0.406c-0.125,0-0.25,0.117-0.25,0.25V1045.316"/>
		<path id="path46" fill="#ffffff" d="M110.125,1037.081c0.969,0,1.719,0.852,1.719,1.922c0,1.031-0.75,1.875-1.719,1.875
			c-0.953,0-1.703-0.844-1.703-1.875C108.422,1037.933,109.172,1037.081,110.125,1037.081z M110.125,1041.753
			c1.469,0,2.625-1.266,2.625-2.75c0-1.516-1.156-2.781-2.625-2.781c-1.453,0-2.617,1.266-2.617,2.781
			C107.508,1040.488,108.672,1041.753,110.125,1041.753"/>
		<path id="path48" fill="#ffffff" d="M113.969,1041.363c0,0.141,0.125,0.25,0.25,0.25h0.422c0.133,0,0.25-0.109,0.25-0.25v-2.773
			c0-0.992,0.453-1.484,1.188-1.484c1,0,1.562,0.75,1.562,0.75c0,0.289,0,0.594,0,3.508c0,0.141,0.125,0.25,0.25,0.25h0.406
			c0.141,0,0.25-0.109,0.25-0.25v-4.758c0-0.133-0.109-0.25-0.25-0.25h-0.25c-0.141,0-0.195,0.094-0.234,0.227l-0.094,0.344
			c0,0-0.609-0.703-1.703-0.703c-1.531,0-2.047,0.984-2.047,2.383V1041.363"/>
		<path id="path50" fill="#ffffff" d="M120.187,1045.316c0,0.125,0.125,0.25,0.25,0.25h0.406c0.141,0,0.25-0.125,0.25-0.25v-8.711
			c0-0.133-0.109-0.25-0.25-0.25h-0.406c-0.125,0-0.25,0.117-0.25,0.25V1045.316"/>
		<path id="path52" fill="#ffffff" d="M124.891,1037.05c0.953,0,1.438,0.875,1.438,0.875v2.625c0,0-0.555,0.312-1.281,0.312
			c-1.141,0-1.719-0.828-1.719-1.875C123.328,1037.956,123.937,1037.05,124.891,1037.05z M124.937,1041.753
			c0.859,0,1.406-0.344,1.406-0.344v3.906c0,0.125,0.117,0.25,0.25,0.25H127c0.125,0,0.25-0.125,0.25-0.25v-8.711
			c0-0.133-0.125-0.25-0.25-0.25h-0.281c-0.109,0-0.195,0.094-0.219,0.211l-0.078,0.359c0,0-0.633-0.703-1.625-0.703
			c-1.336,0-2.391,1.266-2.391,2.781C122.406,1040.534,123.359,1041.753,124.937,1041.753"/>
		<path id="path54" fill="#ffffff" d="M131.937,1045.316c0,0.125,0.109,0.25,0.25,0.25h0.406c0.125,0,0.25-0.125,0.25-0.25v-5.703
			l2.234,1.844c0.109,0.094,0.211,0.156,0.312,0.156h0.711c0.227,0,0.211-0.25,0.117-0.328l-2.5-2l2.906-2.602
			c0.109-0.086,0.094-0.328-0.125-0.328h-0.727c-0.117,0-0.211,0.07-0.258,0.102l-2.672,2.547v-2.398c0-0.133-0.125-0.25-0.25-0.25
			h-0.406c-0.141,0-0.25,0.117-0.25,0.25V1045.316"/>
		<path id="path56" fill="#ffffff" d="M137.641,1041.363c0,0.141,0.109,0.25,0.25,0.25h0.25c0.109,0,0.18-0.047,0.203-0.156
			l0.125-0.406c0,0,0.75,0.703,1.844,0.703c1.523,0,2.031-1,2.031-2.375v-2.773c0-0.133-0.109-0.25-0.25-0.25h-0.422
			c-0.125,0-0.25,0.117-0.25,0.25v2.773c0,1-0.438,1.484-1.18,1.484c-0.992,0-1.695-0.75-1.695-0.75v-3.508
			c0-0.133-0.125-0.25-0.25-0.25h-0.406c-0.141,0-0.25,0.117-0.25,0.25V1041.363"/>
		<path id="path58" fill="#ffffff" d="M146.219,1037.081c0.953,0,1.703,0.852,1.703,1.922c0,1.031-0.75,1.875-1.703,1.875
			c-0.969,0-1.719-0.844-1.719-1.875C144.5,1037.933,145.25,1037.081,146.219,1037.081z M146.219,1041.753
			c1.453,0,2.617-1.266,2.617-2.75c0-1.516-1.164-2.781-2.617-2.781c-1.461,0-2.625,1.266-2.625,2.781
			C143.594,1040.488,144.758,1041.753,146.219,1041.753"/>
		<path id="path60" fill="#ffffff" d="M149.5,1041.316c-0.047,0.188,0,0.297,0.203,0.297h0.406c0.117,0,0.203-0.062,0.234-0.141
			l0.961-3.469h0.008l1.492,3.609c0.023,0.07,0.102,0.141,0.227,0.141h0.062c0.117,0,0.203-0.07,0.219-0.141l1.477-3.625h0.016
			l0.945,3.484c0.031,0.078,0.125,0.141,0.227,0.141h0.406c0.195,0,0.25-0.109,0.195-0.297l-1.438-4.961
			c-0.016-0.078-0.109-0.133-0.219-0.133h-0.062c-0.125,0-0.203,0.062-0.227,0.133l-1.602,3.945l-1.555-3.945
			c-0.023-0.07-0.102-0.133-0.227-0.133h-0.062c-0.125,0-0.203,0.055-0.227,0.133L149.5,1041.316"/>
		<path id="path62" fill="#ffffff" d="M157.437,1037.722c0.422,0,0.75-0.328,0.75-0.75c0-0.406-0.328-0.75-0.75-0.75
			c-0.406,0-0.75,0.344-0.75,0.75C156.687,1037.394,157.031,1037.722,157.437,1037.722"/>
	</g>
</g>
</svg>
